<svg xmlns="http://www.w3.org/2000/svg" width="53.34" height="60.97" viewBox="0 0 53.34 60.97">
  <metadata><?xpacket begin="﻿" id="W5M0MpCehiHzreSzNTczkc9d"?>
<x:xmpmeta xmlns:x="adobe:ns:meta/" x:xmptk="Adobe XMP Core 5.6-c142 79.160924, 2017/07/13-01:06:39        ">
   <rdf:RDF xmlns:rdf="http://www.w3.org/1999/02/22-rdf-syntax-ns#">
      <rdf:Description rdf:about=""/>
   </rdf:RDF>
</x:xmpmeta>
                                                                                                    
                                                                                                    
                                                                                                    
                                                                                                    
                                                                                                    
                                                                                                    
                                                                                                    
                                                                                                    
                                                                                                    
                                                                                                    
                                                                                                    
                                                                                                    
                                                                                                    
                                                                                                    
                                                                                                    
                                                                                                    
                                                                                                    
                                                                                                    
                                                                                                    
                                                                                                    
                           
<?xpacket end="w"?></metadata>
<defs>
    <style>
      .cls-1 {
        fill: #d1d5d7;
        fill-rule: evenodd;
      }
    </style>
  </defs>
  <path id="cup" class="cls-1" d="M1172.74,1482.61l-2.31-6.96a3.817,3.817,0,0,0-3.62-2.61h-34.29a3.8,3.8,0,0,0-3.61,2.61l-2.33,6.96a3.8,3.8,0,0,0-3.58,3.77v5.71a3.809,3.809,0,0,0,3.81,3.81h1.97a3.131,3.131,0,0,0-.04.42l3.81,34.29a3.8,3.8,0,0,0,3.78,3.39H1163a3.819,3.819,0,0,0,3.79-3.39l3.81-34.29c0.01-.14-0.04-0.27-0.04-0.42h1.97a3.809,3.809,0,0,0,3.81-3.81v-5.71A3.794,3.794,0,0,0,1172.74,1482.61Zm-40.22-5.76h34.29l1.91,5.72h-38.1Zm3.81,53.34-0.63-5.71h27.94l-0.64,5.71h-26.67Zm27.52-7.62h-28.36l-2.12-19.05h32.6Zm2.33-20.95h-33.02l-0.64-5.72h34.29Zm6.35-9.53h-45.72v-5.71h45.72v5.71Z" transform="translate(-1123 -1473.03)"/>
</svg>
