<svg xmlns="http://www.w3.org/2000/svg" width="82.407" height="61.75" viewBox="0 0 82.407 61.75">
  <metadata><?xpacket begin="﻿" id="W5M0MpCehiHzreSzNTczkc9d"?>
<x:xmpmeta xmlns:x="adobe:ns:meta/" x:xmptk="Adobe XMP Core 5.6-c142 79.160924, 2017/07/13-01:06:39        ">
   <rdf:RDF xmlns:rdf="http://www.w3.org/1999/02/22-rdf-syntax-ns#">
      <rdf:Description rdf:about=""/>
   </rdf:RDF>
</x:xmpmeta>
                                                                                                    
                                                                                                    
                                                                                                    
                                                                                                    
                                                                                                    
                                                                                                    
                                                                                                    
                                                                                                    
                                                                                                    
                                                                                                    
                                                                                                    
                                                                                                    
                                                                                                    
                                                                                                    
                                                                                                    
                                                                                                    
                                                                                                    
                                                                                                    
                                                                                                    
                                                                                                    
                           
<?xpacket end="w"?></metadata>
<defs>
    <style>
      .cls-1 {
        fill: #ccd0d2;
        fill-rule: evenodd;
      }
    </style>
  </defs>
  <path id="diamond" class="cls-1" d="M894.166,1488.37l-13.08-13.08a5.134,5.134,0,0,0-3.641-1.51H831.512a5.134,5.134,0,0,0-3.641,1.51l-13.08,13.08a5.141,5.141,0,0,0-.209,7.06l36.046,38.39a5.148,5.148,0,0,0,7.7,0l36.048-38.39A5.146,5.146,0,0,0,894.166,1488.37Zm-33.973,3.43H848.762l5.715-4.76Zm-3.7-6.44,7.038-5.86,5.195,5.19-6.52,5.43Zm-9.736,4.76-6.52-5.43,5.2-5.19,7.038,5.86Zm14.136,4.26-6.412,32.06-6.412-32.06h12.824Zm2.625,0H876.15L857.2,1525.97Zm0.7-2.58,6.339-5.28,5.28,5.28H864.211Zm2.386-12.87h9.045l-4.934,4.11Zm-12.12,4.76-5.715-4.76h11.431Zm-16.231-.65-4.933-4.11h9.044Zm0.159,3.48,6.338,5.28H833.124Zm7.035,7.86,6.317,31.59-18.952-31.59H845.44Zm0.551,26.98-25.336-26.98h9.15Zm33.158-26.98H888.3l-25.341,26.98Zm0.322-2.58-6.935-6.93,5.917-4.93,11.863,11.86H879.471Zm-48.977-11.87,5.924,4.94-6.935,6.93H818.445Z" transform="translate(-813.281 -1473.78)"/>
</svg>
