<svg xmlns="http://www.w3.org/2000/svg" width="70.375" height="61.53" viewBox="0 0 70.375 61.53">
  <metadata><?xpacket begin="﻿" id="W5M0MpCehiHzreSzNTczkc9d"?>
<x:xmpmeta xmlns:x="adobe:ns:meta/" x:xmptk="Adobe XMP Core 5.6-c142 79.160924, 2017/07/13-01:06:39        ">
   <rdf:RDF xmlns:rdf="http://www.w3.org/1999/02/22-rdf-syntax-ns#">
      <rdf:Description rdf:about=""/>
   </rdf:RDF>
</x:xmpmeta>
                                                                                                    
                                                                                                    
                                                                                                    
                                                                                                    
                                                                                                    
                                                                                                    
                                                                                                    
                                                                                                    
                                                                                                    
                                                                                                    
                                                                                                    
                                                                                                    
                                                                                                    
                                                                                                    
                                                                                                    
                                                                                                    
                                                                                                    
                                                                                                    
                                                                                                    
                                                                                                    
                           
<?xpacket end="w"?></metadata>
<defs>
    <style>
      .cls-1 {
        fill: #9f449b;
        fill-rule: evenodd;
      }
    </style>
  </defs>
  <path id="heart" class="cls-1" d="M592.825,1478.56a21.191,21.191,0,0,0-29.011-.63,21.19,21.19,0,0,0-29.01.63,20.679,20.679,0,0,0,0,29.47c2.352,2.33,24.306,24.04,24.306,24.04a6.7,6.7,0,0,0,9.409,0s24.04-23.78,24.306-24.04A20.679,20.679,0,0,0,592.825,1478.56Zm-3.137,26.37-24.307,24.04a2.243,2.243,0,0,1-3.133,0l-24.306-24.04a16.343,16.343,0,0,1,0-23.27,16.706,16.706,0,0,1,22.891-.48l2.981,2.68,2.983-2.68a16.706,16.706,0,0,1,22.891.48A16.345,16.345,0,0,1,589.688,1504.93Zm-40.714-21.45h-0.009a9.336,9.336,0,0,0-9.337,9.33h0a1.1,1.1,0,1,0,2.2,0h0a7.145,7.145,0,0,1,7.145-7.14h0A1.1,1.1,0,1,0,548.974,1483.48Z" transform="translate(-528.625 -1472.47)"/>
</svg>
