<svg xmlns="http://www.w3.org/2000/svg" width="43.25" height="62.91" viewBox="0 0 43.25 62.91">
  <metadata><?xpacket begin="﻿" id="W5M0MpCehiHzreSzNTczkc9d"?>
<x:xmpmeta xmlns:x="adobe:ns:meta/" x:xmptk="Adobe XMP Core 5.6-c142 79.160924, 2017/07/13-01:06:39        ">
   <rdf:RDF xmlns:rdf="http://www.w3.org/1999/02/22-rdf-syntax-ns#">
      <rdf:Description rdf:about=""/>
   </rdf:RDF>
</x:xmpmeta>
                                                                                                    
                                                                                                    
                                                                                                    
                                                                                                    
                                                                                                    
                                                                                                    
                                                                                                    
                                                                                                    
                                                                                                    
                                                                                                    
                                                                                                    
                                                                                                    
                                                                                                    
                                                                                                    
                                                                                                    
                                                                                                    
                                                                                                    
                                                                                                    
                                                                                                    
                                                                                                    
                           
<?xpacket end="w"?></metadata>
<defs>
    <style>
      .cls-1 {
        fill: #d1d5d7;
        fill-rule: evenodd;
      }
    </style>
  </defs>
  <path id="phone" class="cls-1" d="M1457.34,1472.1H1425.9a5.9,5.9,0,0,0-5.9,5.9v51.1a5.9,5.9,0,0,0,5.9,5.9h31.44a5.9,5.9,0,0,0,5.9-5.9V1478A5.9,5.9,0,0,0,1457.34,1472.1Zm1.97,57a1.967,1.967,0,0,1-1.97,1.97H1425.9a1.967,1.967,0,0,1-1.97-1.97v-3.93l35.38-.01v3.94Zm0-5.9h-35.38v-39.3h35.38v39.3Zm0-41.27h-35.38V1478a1.965,1.965,0,0,1,1.97-1.96l31.44-.01a1.967,1.967,0,0,1,1.97,1.97v3.93Zm-13.76-2.95a0.982,0.982,0,0,1-.98.98h-5.9a0.982,0.982,0,0,1-.98-0.98h0a0.982,0.982,0,0,1,.98-0.98h5.9a0.982,0.982,0,0,1,.98.98h0Zm-1.96,49.13a0.984,0.984,0,0,1-.99.98h-1.96a0.975,0.975,0,0,1-.98-0.98h0a0.975,0.975,0,0,1,.98-0.98h1.96a0.984,0.984,0,0,1,.99.98h0Z" transform="translate(-1420 -1472.09)"/>
</svg>
