<svg xmlns="http://www.w3.org/2000/svg" width="64.5" height="56.44" viewBox="0 0 64.5 56.44">
  <metadata><?xpacket begin="﻿" id="W5M0MpCehiHzreSzNTczkc9d"?>
<x:xmpmeta xmlns:x="adobe:ns:meta/" x:xmptk="Adobe XMP Core 5.6-c142 79.160924, 2017/07/13-01:06:39        ">
   <rdf:RDF xmlns:rdf="http://www.w3.org/1999/02/22-rdf-syntax-ns#">
      <rdf:Description rdf:about=""/>
   </rdf:RDF>
</x:xmpmeta>
                                                                                                    
                                                                                                    
                                                                                                    
                                                                                                    
                                                                                                    
                                                                                                    
                                                                                                    
                                                                                                    
                                                                                                    
                                                                                                    
                                                                                                    
                                                                                                    
                                                                                                    
                                                                                                    
                                                                                                    
                                                                                                    
                                                                                                    
                                                                                                    
                                                                                                    
                                                                                                    
                           
<?xpacket end="w"?></metadata>
<defs>
    <style>
      .cls-1 {
        fill: #fff;
        fill-rule: evenodd;
      }
    </style>
  </defs>
  <path id="bubble" class="cls-1" d="M1000.25,5837.64c-12.02,0-22.173,6.47-22.173,14.11a1.008,1.008,0,1,0,2.016,0c0-6.44,9.418-12.09,20.157-12.09A1.01,1.01,0,0,0,1000.25,5837.64Zm0-10.07c-17.813,0-32.25,10.83-32.25,24.18,0,8.32,5.6,15.65,14.124,20.01,0,0.05-.016.09-0.016,0.15,0,3.61-2.7,7.5-3.885,9.54h0A1.825,1.825,0,0,0,979.9,5884c0.189,0,.521-0.05.514-0.03,6.3-1.03,12.232-6.81,13.61-8.49a43.592,43.592,0,0,0,6.222.46c17.81,0,32.25-10.83,32.25-24.19S1018.06,5827.57,1000.25,5827.57Zm0,44.34a38.6,38.6,0,0,1-5.637-.42,3.852,3.852,0,0,0-.585-0.04,4.029,4.029,0,0,0-3.116,1.47,27.209,27.209,0,0,1-6.217,5.12,15.777,15.777,0,0,0,1.442-5.91c0.012-.13.018-0.26,0.018-0.37a4.025,4.025,0,0,0-2.2-3.59c-7.469-3.82-11.927-9.95-11.927-16.42,0-11.11,12.658-20.15,28.219-20.15s28.21,9.04,28.21,20.15S1015.81,5871.91,1000.25,5871.91Z" transform="translate(-968 -5827.56)"/>
</svg>
