<svg xmlns="http://www.w3.org/2000/svg" width="67.592" height="59.16" viewBox="0 0 67.592 59.16">
  <metadata><?xpacket begin="﻿" id="W5M0MpCehiHzreSzNTczkc9d"?>
<x:xmpmeta xmlns:x="adobe:ns:meta/" x:xmptk="Adobe XMP Core 5.6-c142 79.160924, 2017/07/13-01:06:39        ">
   <rdf:RDF xmlns:rdf="http://www.w3.org/1999/02/22-rdf-syntax-ns#">
      <rdf:Description rdf:about=""/>
   </rdf:RDF>
</x:xmpmeta>
                                                                                                    
                                                                                                    
                                                                                                    
                                                                                                    
                                                                                                    
                                                                                                    
                                                                                                    
                                                                                                    
                                                                                                    
                                                                                                    
                                                                                                    
                                                                                                    
                                                                                                    
                                                                                                    
                                                                                                    
                                                                                                    
                                                                                                    
                                                                                                    
                                                                                                    
                                                                                                    
                           
<?xpacket end="w"?></metadata>
<defs>
    <style>
      .cls-1 {
        fill: #fff;
        fill-rule: evenodd;
      }
    </style>
  </defs>
  <path id="study" class="cls-1" d="M1032.54,3286.74a6.315,6.315,0,0,0-4.91-6.18l-27.5-6.34a5.993,5.993,0,0,0-1.4-.16,6.439,6.439,0,0,0-1.425.16l-27.465,6.34a6.343,6.343,0,0,0,0,12.36l5.652,1.3v17.87c0,5.61,6.418,10.57,23.24,10.57s23.246-4.96,23.246-10.57v-17.87l5.64-1.3A6.313,6.313,0,0,0,1032.54,3286.74Zm-14.79,25.35c0,2.34-6.34,6.34-19.016,6.34s-19.015-4-19.015-6.34V3295.2l17.618,4.06a6.615,6.615,0,0,0,1.4.16,6.465,6.465,0,0,0,1.426-.17l17.59-4.05v16.89Zm-18.54-16.95a2.286,2.286,0,0,1-.951,0l-27.466-6.34a2.114,2.114,0,0,1,0-4.12l27.466-6.34a2.286,2.286,0,0,1,.951,0l27.47,6.34a2.117,2.117,0,0,1,0,4.12Zm26.99,2.16v19.02a2.115,2.115,0,0,0,4.23,0V3297.3A2.115,2.115,0,0,0,1026.2,3297.3Zm2.11,23.24c-2.33,0-4.22,6.12-4.22,8.45a4.225,4.225,0,1,0,8.45,0C1032.54,3326.66,1030.65,3320.54,1028.31,3320.54Z" transform="translate(-964.938 -3274.06)"/>
</svg>
